REM GENRE "soundtrack"
TITLE "のんのんびより りぴーと オリジナルサウンドトラック"
FILE "水谷広実 - のんのんびより りぴーと オリジナルサウンドトラック.flac" WAVE
  TRACK 01 AUDIO
    TITLE "のんのんバイオリン"
    PERFORMER "水谷広実"
    INDEX 00 00:00:00
    INDEX 01 00:00:00
  TRACK 02 AUDIO
    TITLE "こだまことだま（TV ver.）　nano.RIPE"
    PERFORMER "水谷広実"
    INDEX 00 00:00:00
    INDEX 01 01:46:04
  TRACK 03 AUDIO
    TITLE "伝説の道しるべ"
    PERFORMER "水谷広実"
    INDEX 00 00:00:00
    INDEX 01 03:17:68
  TRACK 04 AUDIO
    TITLE "返事は？"
    PERFORMER "水谷広実"
    INDEX 00 00:00:00
    INDEX 01 05:33:30
  TRACK 05 AUDIO
    TITLE "いつもの空"
    PERFORMER "水谷広実"
    INDEX 00 00:00:00
    INDEX 01 07:31:47
  TRACK 06 AUDIO
    TITLE "木漏れ日とせせらぎ"
    PERFORMER "水谷広実"
    INDEX 00 00:00:00
    INDEX 01 09:57:60
  TRACK 07 AUDIO
    TITLE "旭丘分校校歌"
    PERFORMER "水谷広実"
    INDEX 00 00:00:00
    INDEX 01 11:05:14
  TRACK 08 AUDIO
    TITLE "のんのんハーモニカ"
    PERFORMER "水谷広実"
    INDEX 00 00:00:00
    INDEX 01 14:30:62
  TRACK 09 AUDIO
    TITLE "白刃取り封じ"
    PERFORMER "水谷広実"
    INDEX 00 00:00:00
    INDEX 01 16:19:24
  TRACK 10 AUDIO
    TITLE "迷子"
    PERFORMER "水谷広実"
    INDEX 00 00:00:00
    INDEX 01 18:37:69
  TRACK 11 AUDIO
    TITLE "夜空"
    PERFORMER "水谷広実"
    INDEX 00 00:00:00
    INDEX 01 21:11:07
  TRACK 12 AUDIO
    TITLE "めぐり道"
    PERFORMER "水谷広実"
    INDEX 00 00:00:00
    INDEX 01 23:36:51
  TRACK 13 AUDIO
    TITLE "夏海ちゃんは出来る"
    PERFORMER "水谷広実"
    INDEX 00 00:00:00
    INDEX 01 26:14:53
  TRACK 14 AUDIO
    TITLE "ずいずいデコポン"
    PERFORMER "水谷広実"
    INDEX 00 00:00:00
    INDEX 01 27:52:73
  TRACK 15 AUDIO
    TITLE "川遊び"
    PERFORMER "水谷広実"
    INDEX 00 00:00:00
    INDEX 01 29:41:23
  TRACK 16 AUDIO
    TITLE "のんびりてるてる"
    PERFORMER "水谷広実"
    INDEX 00 00:00:00
    INDEX 01 31:27:42
  TRACK 17 AUDIO
    TITLE "ぱにっくてるてる"
    PERFORMER "水谷広実"
    INDEX 00 00:00:00
    INDEX 01 33:25:29
  TRACK 18 AUDIO
    TITLE "のんのん狂詩曲"
    PERFORMER "水谷広実"
    INDEX 00 00:00:00
    INDEX 01 34:31:17
  TRACK 19 AUDIO
    TITLE "優しい光"
    PERFORMER "水谷広実"
    INDEX 00 00:00:00
    INDEX 01 36:21:38
  TRACK 20 AUDIO
    TITLE "えにっき"
    PERFORMER "水谷広実"
    INDEX 00 00:00:00
    INDEX 01 38:43:21
  TRACK 21 AUDIO
    TITLE "木漏れ日とそよぎ"
    PERFORMER "水谷広実"
    INDEX 00 00:00:00
    INDEX 01 41:02:25
  TRACK 22 AUDIO
    TITLE "プール掃除"
    PERFORMER "水谷広実"
    INDEX 00 00:00:00
    INDEX 01 42:02:56
  TRACK 23 AUDIO
    TITLE "のんのんリコーダー"
    PERFORMER "水谷広実"
    INDEX 00 00:00:00
    INDEX 01 43:59:45
  TRACK 24 AUDIO
    TITLE "お好み焼き"
    PERFORMER "水谷広実"
    INDEX 00 00:00:00
    INDEX 01 45:48:29
  TRACK 25 AUDIO
    TITLE "無我夢中！"
    PERFORMER "水谷広実"
    INDEX 00 00:00:00
    INDEX 01 47:02:34
  TRACK 26 AUDIO
    TITLE "木漏れ日とささやき"
    PERFORMER "水谷広実"
    INDEX 00 00:00:00
    INDEX 01 48:28:45
  TRACK 27 AUDIO
    TITLE "曇り空"
    PERFORMER "水谷広実"
    INDEX 00 00:00:00
    INDEX 01 49:30:35
  TRACK 28 AUDIO
    TITLE "いつも一緒"
    PERFORMER "水谷広実"
    INDEX 00 00:00:00
    INDEX 01 51:12:65
  TRACK 29 AUDIO
    TITLE "木漏れ日"
    PERFORMER "水谷広実"
    INDEX 00 00:00:00
    INDEX 01 53:34:59
  TRACK 30 AUDIO
    TITLE "優しい風"
    PERFORMER "水谷広実"
    INDEX 00 00:00:00
    INDEX 01 54:41:05
  TRACK 31 AUDIO
    TITLE "陽だまり道は続く"
    PERFORMER "水谷広実"
    INDEX 00 00:00:00
    INDEX 01 57:34:47
  TRACK 32 AUDIO
    TITLE "おかえり（TV ver.）　宮内れんげ(CV.小岩井ことり)，一条 蛍(CV.村川梨衣)，越谷夏海(CV.佐倉綾音)，越谷小鞠(CV.阿澄佳奈)"
    PERFORMER "水谷広実"
    INDEX 00 00:00:00
    INDEX 01 60:36:37
